# xmcd CD database file
#
# Track frame offsets:
#	150
#	11201
#	26789
#	42414
#	55671
#	73347
#	92796
#	108085
#	131752
#	146859
#	168675
#	195113
#	221143
#	238644
#	250106
#	263947
#	277698
#	293493
#
# Disc length: 4068 seconds
#
# Revision: 0
# Processed by: cddbd v1.5.2PL0 Copyright (c) Steve Scherf et al.
# Submitted via: CDex 1.70beta2
#
DISCID=0e0fe212
DTITLE=Benny Goodman - Trio and Quartet Showcase [CD2]
DYEAR=2007
DGENRE=Jazz
TTITLE0=Handful of Keys
TTITLE1=Liza
TTITLE2=Where or When
TTITLE3=Vieni Vieni
TTITLE4=Sweet Lorraine
TTITLE5=Avalon
TTITLE6=The Man I Love
TTITLE7=I Got Rythm
TTITLE8=Body and Soul
TTITLE9=China Boy
TTITLE10=Sompin' at the Savoy
TTITLE11=Dizzy Spells
TTITLE12=My Gal Sal
TTITLE13=Nice Work If You Can Get It
TTITLE14=Killer Diller
TTITLE15=Benny Sent Me
TTITLE16=Ding Dong Daddy
TTITLE17=Have You Met Miss Jones?
EXTD=YEAR: 2007
EXTT0=
EXTT1=
EXTT2=
EXTT3=
EXTT4=
EXTT5=
EXTT6=
EXTT7=
EXTT8=
EXTT9=
EXTT10=
EXTT11=
EXTT12=
EXTT13=
EXTT14=
EXTT15=
EXTT16=
EXTT17=
PLAYORDER=
